# xmcd
#
# Track frame offsets: 
#        150
#        9050
#        19347
#        36691
#        50289
#        63676
#        72882
#        85983
#        98412
#        108934
#        120842
#        132483
#
# Disc length: 1944 seconds
#
# Revision: 0
# Processed by: cddbd v1.5.2PL0 Copyright (c) Steve Scherf et al.
# Submitted via: ExactAudioCopy v0.99pb5
#
DISCID=9707960c
DTITLE=The Stanley Brothers - Hymns Of The Cross
DYEAR=1964
DGENRE=Bluegrass
TTITLE0=John Three-Sixteen
TTITLE1=I Just Dropped By
TTITLE2=Beautiful Star Of Bethlehem
TTITLE3=He's Passing This Way
TTITLE4=No Burden Pass Through
TTITLE5=A Crown He Wore
TTITLE6=Shoutin' On The Hills Of Glory
TTITLE7=Jesus, Savior, Pilot Me
TTITLE8=Building On That Rock
TTITLE9=Will The Circle Be Unbroken
TTITLE10=How Beautiful Heaven Must Be
TTITLE11=Oh Death
EXTD=
EXTT0=
EXTT1=
EXTT2=
EXTT3=
EXTT4=
EXTT5=
EXTT6=
EXTT7=
EXTT8=
EXTT9=
EXTT10=
EXTT11=
PLAYORDER=
